<svg width="365" height="69" viewBox="0 0 365 69" fill="none" xmlns="http://www.w3.org/2000/svg">
<path d="M90.425 46C89.6143 46 88.985 45.776 88.537 45.328C88.1103 44.88 87.897 44.2613 87.897 43.472V25.904C87.897 25.072 88.1103 24.4427 88.537 24.016C88.9637 23.5893 89.5823 23.376 90.393 23.376C91.1823 23.376 91.7903 23.5893 92.217 24.016C92.6437 24.4427 92.857 25.072 92.857 25.904V41.808H101.433C102.116 41.808 102.638 41.9893 103.001 42.352C103.385 42.7147 103.577 43.2267 103.577 43.888C103.577 44.5707 103.385 45.0933 103.001 45.456C102.638 45.8187 102.116 46 101.433 46H90.425ZM111.137 46.352C109.985 46.352 108.95 46.128 108.033 45.68C107.115 45.232 106.401 44.624 105.889 43.856C105.377 43.088 105.121 42.224 105.121 41.264C105.121 40.112 105.419 39.2053 106.017 38.544C106.614 37.8613 107.585 37.3813 108.929 37.104C110.273 36.8053 112.054 36.656 114.273 36.656H115.969V39.152H114.305C113.217 39.152 112.331 39.216 111.649 39.344C110.987 39.4507 110.507 39.6427 110.209 39.92C109.931 40.1973 109.793 40.5813 109.793 41.072C109.793 41.6693 109.995 42.16 110.401 42.544C110.827 42.928 111.435 43.12 112.225 43.12C112.843 43.12 113.387 42.9813 113.857 42.704C114.347 42.4053 114.731 42.0107 115.009 41.52C115.286 41.008 115.425 40.432 115.425 39.792V36.112C115.425 35.1733 115.211 34.512 114.785 34.128C114.358 33.7227 113.633 33.52 112.609 33.52C112.033 33.52 111.403 33.5947 110.721 33.744C110.059 33.872 109.323 34.096 108.513 34.416C108.043 34.6293 107.627 34.6827 107.265 34.576C106.902 34.448 106.625 34.2347 106.433 33.936C106.241 33.616 106.145 33.2747 106.145 32.912C106.145 32.528 106.251 32.1653 106.465 31.824C106.678 31.4613 107.03 31.1947 107.521 31.024C108.523 30.6187 109.462 30.3413 110.337 30.192C111.233 30.0427 112.054 29.968 112.801 29.968C114.443 29.968 115.787 30.2133 116.833 30.704C117.899 31.1733 118.699 31.9093 119.233 32.912C119.766 33.8933 120.033 35.1627 120.033 36.72V43.824C120.033 44.6133 119.841 45.2213 119.457 45.648C119.073 46.0747 118.518 46.288 117.793 46.288C117.067 46.288 116.502 46.0747 116.097 45.648C115.713 45.2213 115.521 44.6133 115.521 43.824V42.64L115.745 42.832C115.617 43.5573 115.339 44.1867 114.913 44.72C114.507 45.232 113.985 45.6373 113.345 45.936C112.705 46.2133 111.969 46.352 111.137 46.352ZM135.583 46C134.751 46 134.111 45.776 133.663 45.328C133.215 44.88 132.991 44.24 132.991 43.408V26.032C132.991 25.2 133.215 24.56 133.663 24.112C134.111 23.664 134.751 23.44 135.583 23.44H143.327C144.927 23.44 146.292 23.6747 147.423 24.144C148.553 24.6133 149.407 25.2853 149.983 26.16C150.58 27.0347 150.879 28.08 150.879 29.296C150.879 30.64 150.495 31.7813 149.727 32.72C148.959 33.6587 147.903 34.288 146.559 34.608V34.096C148.116 34.3733 149.321 34.992 150.175 35.952C151.049 36.8907 151.487 38.1173 151.487 39.632C151.487 41.6373 150.793 43.2053 149.407 44.336C148.02 45.4453 146.111 46 143.679 46H135.583ZM137.727 42.32H143.007C144.287 42.32 145.225 42.0747 145.823 41.584C146.42 41.072 146.719 40.3253 146.719 39.344C146.719 38.3627 146.42 37.6267 145.823 37.136C145.225 36.6453 144.287 36.4 143.007 36.4H137.727V42.32ZM137.727 32.72H142.463C143.7 32.72 144.617 32.4853 145.215 32.016C145.812 31.5467 146.111 30.8427 146.111 29.904C146.111 28.9867 145.812 28.2933 145.215 27.824C144.617 27.3547 143.7 27.12 142.463 27.12H137.727V32.72ZM162.377 46.352C160.691 46.352 159.219 46.0213 157.961 45.36C156.723 44.6987 155.763 43.7493 155.081 42.512C154.398 41.2747 154.057 39.8133 154.057 38.128C154.057 36.8693 154.249 35.7387 154.633 34.736C155.017 33.7333 155.571 32.88 156.297 32.176C157.043 31.4507 157.929 30.9067 158.953 30.544C159.977 30.16 161.118 29.968 162.377 29.968C164.062 29.968 165.523 30.2987 166.761 30.96C168.019 31.6213 168.99 32.56 169.673 33.776C170.377 34.992 170.729 36.4427 170.729 38.128C170.729 39.408 170.526 40.5493 170.121 41.552C169.737 42.5547 169.182 43.4187 168.457 44.144C167.731 44.8693 166.846 45.424 165.801 45.808C164.777 46.1707 163.635 46.352 162.377 46.352ZM162.377 42.736C163.081 42.736 163.689 42.5653 164.201 42.224C164.713 41.8827 165.118 41.3813 165.417 40.72C165.715 40.0373 165.865 39.1733 165.865 38.128C165.865 36.5707 165.545 35.4293 164.905 34.704C164.265 33.9573 163.422 33.584 162.377 33.584C161.694 33.584 161.086 33.744 160.553 34.064C160.041 34.384 159.635 34.8853 159.337 35.568C159.059 36.2293 158.921 37.0827 158.921 38.128C158.921 39.6853 159.241 40.848 159.881 41.616C160.521 42.3627 161.353 42.736 162.377 42.736ZM176.101 46.288C175.311 46.288 174.703 46.0747 174.277 45.648C173.871 45.2213 173.669 44.6133 173.669 43.824V32.464C173.669 31.6747 173.871 31.0773 174.277 30.672C174.703 30.2453 175.29 30.032 176.036 30.032C176.805 30.032 177.391 30.2453 177.797 30.672C178.202 31.0773 178.405 31.6747 178.405 32.464V34.288L178.053 33.232C178.543 32.1867 179.269 31.3867 180.229 30.832C181.21 30.256 182.319 29.968 183.557 29.968C184.815 29.968 185.85 30.2133 186.661 30.704C187.471 31.1733 188.079 31.8987 188.485 32.88C188.89 33.84 189.093 35.0667 189.093 36.56V43.824C189.093 44.6133 188.879 45.2213 188.453 45.648C188.047 46.0747 187.45 46.288 186.661 46.288C185.893 46.288 185.295 46.0747 184.869 45.648C184.463 45.2213 184.261 44.6133 184.261 43.824V36.784C184.261 35.696 184.058 34.9173 183.653 34.448C183.269 33.9573 182.671 33.712 181.861 33.712C180.837 33.712 180.015 34.032 179.397 34.672C178.799 35.312 178.501 36.1653 178.501 37.232V43.824C178.501 45.4667 177.701 46.288 176.101 46.288ZM195.132 46.288C194.342 46.288 193.734 46.0747 193.308 45.648C192.902 45.2213 192.7 44.6133 192.7 43.824V32.464C192.7 31.6747 192.902 31.0773 193.308 30.672C193.734 30.2453 194.321 30.032 195.068 30.032C195.836 30.032 196.422 30.2453 196.828 30.672C197.233 31.0773 197.436 31.6747 197.436 32.464V34.288L197.084 33.232C197.574 32.1867 198.3 31.3867 199.26 30.832C200.241 30.256 201.35 29.968 202.588 29.968C203.846 29.968 204.881 30.2133 205.692 30.704C206.502 31.1733 207.11 31.8987 207.516 32.88C207.921 33.84 208.124 35.0667 208.124 36.56V43.824C208.124 44.6133 207.91 45.2213 207.484 45.648C207.078 46.0747 206.481 46.288 205.692 46.288C204.924 46.288 204.326 46.0747 203.9 45.648C203.494 45.2213 203.292 44.6133 203.292 43.824V36.784C203.292 35.696 203.089 34.9173 202.684 34.448C202.3 33.9573 201.702 33.712 200.892 33.712C199.868 33.712 199.046 34.032 198.428 34.672C197.83 35.312 197.532 36.1653 197.532 37.232V43.824C197.532 45.4667 196.732 46.288 195.132 46.288ZM219.891 46.352C218.035 46.352 216.435 46.0213 215.091 45.36C213.768 44.6773 212.744 43.728 212.019 42.512C211.315 41.2747 210.963 39.824 210.963 38.16C210.963 36.5387 211.304 35.12 211.987 33.904C212.67 32.6667 213.619 31.7067 214.835 31.024C216.072 30.32 217.47 29.968 219.027 29.968C220.158 29.968 221.182 30.16 222.099 30.544C223.016 30.9067 223.806 31.44 224.467 32.144C225.128 32.8267 225.63 33.6693 225.971 34.672C226.312 35.6533 226.483 36.752 226.483 37.968C226.483 38.3733 226.355 38.6827 226.099 38.896C225.843 39.088 225.47 39.184 224.979 39.184H214.931V36.688H222.995L222.483 37.136C222.483 36.2613 222.355 35.536 222.099 34.96C221.843 34.3627 221.47 33.9147 220.979 33.616C220.51 33.3173 219.923 33.168 219.219 33.168C218.43 33.168 217.758 33.3493 217.203 33.712C216.648 34.0747 216.222 34.5973 215.923 35.28C215.624 35.9627 215.475 36.784 215.475 37.744V38C215.475 39.6213 215.848 40.816 216.595 41.584C217.363 42.352 218.494 42.736 219.987 42.736C220.499 42.736 221.086 42.672 221.747 42.544C222.408 42.416 223.027 42.2133 223.603 41.936C224.094 41.7013 224.531 41.6267 224.915 41.712C225.299 41.776 225.598 41.9467 225.811 42.224C226.024 42.5013 226.142 42.8213 226.163 43.184C226.206 43.5467 226.131 43.9093 225.939 44.272C225.747 44.6133 225.427 44.9013 224.979 45.136C224.254 45.5413 223.432 45.84 222.515 46.032C221.619 46.2453 220.744 46.352 219.891 46.352ZM239.287 46.288C238.69 46.288 238.199 46.1493 237.815 45.872C237.452 45.5947 237.218 45.2213 237.111 44.752C237.026 44.2827 237.122 43.76 237.399 43.184L245.591 25.232C245.932 24.5067 246.338 23.984 246.807 23.664C247.276 23.3227 247.82 23.152 248.439 23.152C249.058 23.152 249.602 23.3227 250.071 23.664C250.54 23.984 250.935 24.5067 251.255 25.232L259.511 43.184C259.788 43.76 259.884 44.2933 259.799 44.784C259.735 45.2533 259.522 45.6267 259.159 45.904C258.796 46.16 258.327 46.288 257.751 46.288C257.026 46.288 256.46 46.1173 256.055 45.776C255.671 45.4347 255.33 44.9013 255.031 44.176L253.111 39.728L255.095 41.104H241.751L243.735 39.728L241.847 44.176C241.527 44.9227 241.186 45.4667 240.823 45.808C240.482 46.128 239.97 46.288 239.287 46.288ZM248.375 28.72L244.279 38.48L243.415 37.232H253.431L252.567 38.48L248.439 28.72H248.375ZM268.281 46.352C266.915 46.352 265.71 46.0213 264.665 45.36C263.641 44.6987 262.841 43.7493 262.265 42.512C261.689 41.2747 261.401 39.8133 261.401 38.128C261.401 36.4427 261.689 34.992 262.265 33.776C262.841 32.56 263.641 31.6213 264.665 30.96C265.71 30.2987 266.915 29.968 268.281 29.968C269.518 29.968 270.606 30.2667 271.545 30.864C272.505 31.4613 273.155 32.24 273.497 33.2H273.145V25.616C273.145 24.8053 273.347 24.1973 273.753 23.792C274.158 23.3653 274.755 23.152 275.545 23.152C276.313 23.152 276.91 23.3653 277.337 23.792C277.763 24.1973 277.977 24.8053 277.977 25.616V43.824C277.977 44.6133 277.763 45.2213 277.337 45.648C276.931 46.0747 276.345 46.288 275.577 46.288C274.809 46.288 274.211 46.0747 273.785 45.648C273.379 45.2213 273.177 44.6133 273.177 43.824V41.648L273.529 42.896C273.23 43.9413 272.59 44.784 271.609 45.424C270.649 46.0427 269.539 46.352 268.281 46.352ZM269.72 42.736C270.425 42.736 271.033 42.5653 271.545 42.224C272.057 41.8827 272.462 41.3813 272.761 40.72C273.059 40.0373 273.209 39.1733 273.209 38.128C273.209 36.5707 272.889 35.4293 272.249 34.704C271.609 33.9573 270.766 33.584 269.72 33.584C269.038 33.584 268.43 33.744 267.897 34.064C267.385 34.384 266.979 34.8853 266.681 35.568C266.403 36.2293 266.265 37.0827 266.265 38.128C266.265 39.6853 266.585 40.848 267.225 41.616C267.865 42.3627 268.697 42.736 269.72 42.736ZM284.196 46.288C283.385 46.288 282.766 46.0747 282.34 45.648C281.913 45.2213 281.7 44.6133 281.7 43.824V32.464C281.7 31.6747 281.902 31.0773 282.308 30.672C282.734 30.2453 283.321 30.032 284.068 30.032C284.836 30.032 285.422 30.2453 285.828 30.672C286.233 31.0773 286.436 31.6747 286.436 32.464V34.128H286.116C286.372 32.848 286.937 31.856 287.812 31.152C288.686 30.448 289.817 30.0533 291.204 29.968C291.737 29.9253 292.142 30.064 292.42 30.384C292.718 30.6827 292.878 31.184 292.9 31.888C292.942 32.5493 292.804 33.072 292.484 33.456C292.185 33.84 291.673 34.0747 290.948 34.16L290.212 34.224C288.996 34.3307 288.089 34.6827 287.492 35.28C286.916 35.8773 286.628 36.7413 286.628 37.872V43.824C286.628 44.6133 286.414 45.2213 285.988 45.648C285.582 46.0747 284.985 46.288 284.196 46.288ZM302.766 46.352C300.91 46.352 299.31 46.0213 297.966 45.36C296.643 44.6773 295.619 43.728 294.894 42.512C294.19 41.2747 293.838 39.824 293.838 38.16C293.838 36.5387 294.179 35.12 294.862 33.904C295.545 32.6667 296.494 31.7067 297.71 31.024C298.947 30.32 300.345 29.968 301.902 29.968C303.033 29.968 304.057 30.16 304.974 30.544C305.891 30.9067 306.681 31.44 307.342 32.144C308.003 32.8267 308.505 33.6693 308.846 34.672C309.187 35.6533 309.358 36.752 309.358 37.968C309.358 38.3733 309.23 38.6827 308.974 38.896C308.718 39.088 308.345 39.184 307.854 39.184H297.806V36.688H305.87L305.358 37.136C305.358 36.2613 305.23 35.536 304.974 34.96C304.718 34.3627 304.345 33.9147 303.854 33.616C303.385 33.3173 302.798 33.168 302.094 33.168C301.305 33.168 300.633 33.3493 300.078 33.712C299.523 34.0747 299.097 34.5973 298.798 35.28C298.499 35.9627 298.35 36.784 298.35 37.744V38C298.35 39.6213 298.723 40.816 299.47 41.584C300.238 42.352 301.369 42.736 302.862 42.736C303.374 42.736 303.961 42.672 304.622 42.544C305.283 42.416 305.902 42.2133 306.478 41.936C306.969 41.7013 307.406 41.6267 307.79 41.712C308.174 41.776 308.473 41.9467 308.686 42.224C308.899 42.5013 309.017 42.8213 309.038 43.184C309.081 43.5467 309.006 43.9093 308.814 44.272C308.622 44.6133 308.302 44.9013 307.854 45.136C307.129 45.5413 306.307 45.84 305.39 46.032C304.494 46.2453 303.619 46.352 302.766 46.352ZM318.185 46.352C317.246 46.352 316.275 46.2667 315.273 46.096C314.291 45.9253 313.395 45.6373 312.585 45.232C312.158 45.0187 311.849 44.752 311.657 44.432C311.486 44.0907 311.411 43.7493 311.433 43.408C311.454 43.0667 311.561 42.7573 311.753 42.48C311.966 42.2027 312.233 42.0213 312.553 41.936C312.894 41.8293 313.267 41.8613 313.673 42.032C314.547 42.3947 315.347 42.6507 316.073 42.8C316.798 42.9493 317.513 43.024 318.217 43.024C319.134 43.024 319.795 42.8853 320.201 42.608C320.627 42.3093 320.841 41.9253 320.841 41.456C320.841 41.0293 320.702 40.7093 320.425 40.496C320.147 40.2827 319.742 40.1333 319.209 40.048L315.849 39.44C314.526 39.2053 313.502 38.7253 312.777 38C312.073 37.2533 311.721 36.304 311.721 35.152C311.721 34.0853 312.019 33.168 312.617 32.4C313.214 31.6107 314.035 31.0133 315.081 30.608C316.147 30.1813 317.353 29.968 318.697 29.968C319.657 29.968 320.542 30.0533 321.353 30.224C322.163 30.3947 322.942 30.672 323.689 31.056C324.073 31.248 324.339 31.504 324.489 31.824C324.659 32.144 324.713 32.4747 324.649 32.816C324.606 33.1573 324.478 33.4667 324.265 33.744C324.051 34.0213 323.774 34.2027 323.433 34.288C323.113 34.3733 322.739 34.3307 322.313 34.16C321.63 33.84 321.001 33.616 320.425 33.488C319.849 33.3387 319.294 33.264 318.76 33.264C317.801 33.264 317.107 33.424 316.681 33.744C316.254 34.0427 316.041 34.4267 316.041 34.896C316.041 35.2587 316.158 35.568 316.393 35.824C316.649 36.0587 317.033 36.2187 317.545 36.304L320.905 36.912C322.291 37.1467 323.347 37.616 324.073 38.32C324.798 39.0027 325.161 39.9413 325.161 41.136C325.161 42.7573 324.521 44.0373 323.241 44.976C321.982 45.8933 320.297 46.352 318.185 46.352ZM333.935 46.352C332.996 46.352 332.025 46.2667 331.023 46.096C330.041 45.9253 329.145 45.6373 328.335 45.232C327.908 45.0187 327.599 44.752 327.407 44.432C327.236 44.0907 327.161 43.7493 327.183 43.408C327.204 43.0667 327.311 42.7573 327.503 42.48C327.716 42.2027 327.983 42.0213 328.303 41.936C328.644 41.8293 329.017 41.8613 329.423 42.032C330.297 42.3947 331.097 42.6507 331.823 42.8C332.548 42.9493 333.263 43.024 333.967 43.024C334.884 43.024 335.545 42.8853 335.951 42.608C336.377 42.3093 336.591 41.9253 336.591 41.456C336.591 41.0293 336.452 40.7093 336.175 40.496C335.897 40.2827 335.492 40.1333 334.959 40.048L331.599 39.44C330.276 39.2053 329.252 38.7253 328.527 38C327.823 37.2533 327.471 36.304 327.471 35.152C327.471 34.0853 327.769 33.168 328.367 32.4C328.964 31.6107 329.785 31.0133 330.831 30.608C331.897 30.1813 333.103 29.968 334.447 29.968C335.407 29.968 336.292 30.0533 337.103 30.224C337.913 30.3947 338.692 30.672 339.439 31.056C339.823 31.248 340.089 31.504 340.239 31.824C340.409 32.144 340.463 32.4747 340.399 32.816C340.356 33.1573 340.228 33.4667 340.015 33.744C339.801 34.0213 339.524 34.2027 339.183 34.288C338.863 34.3733 338.489 34.3307 338.063 34.16C337.38 33.84 336.751 33.616 336.175 33.488C335.599 33.3387 335.044 33.264 334.51 33.264C333.551 33.264 332.857 33.424 332.431 33.744C332.004 34.0427 331.791 34.4267 331.791 34.896C331.791 35.2587 331.908 35.568 332.143 35.824C332.399 36.0587 332.783 36.2187 333.295 36.304L336.655 36.912C338.041 37.1467 339.097 37.616 339.823 38.32C340.548 39.0027 340.911 39.9413 340.911 41.136C340.911 42.7573 340.271 44.0373 338.991 44.976C337.732 45.8933 336.047 46.352 333.935 46.352ZM351.829 46.352C349.973 46.352 348.373 46.0213 347.029 45.36C345.706 44.6773 344.682 43.728 343.957 42.512C343.253 41.2747 342.901 39.824 342.901 38.16C342.901 36.5387 343.242 35.12 343.924 33.904C344.607 32.6667 345.557 31.7067 346.773 31.024C348.01 30.32 349.407 29.968 350.965 29.968C352.095 29.968 353.119 30.16 354.037 30.544C354.954 30.9067 355.743 31.44 356.405 32.144C357.066 32.8267 357.567 33.6693 357.909 34.672C358.25 35.6533 358.421 36.752 358.421 37.968C358.421 38.3733 358.293 38.6827 358.037 38.896C357.781 39.088 357.407 39.184 356.917 39.184H346.869V36.688H354.933L354.421 37.136C354.421 36.2613 354.293 35.536 354.037 34.96C353.781 34.3627 353.407 33.9147 352.917 33.616C352.447 33.3173 351.861 33.168 351.157 33.168C350.367 33.168 349.695 33.3493 349.141 33.712C348.586 34.0747 348.159 34.5973 347.861 35.28C347.562 35.9627 347.413 36.784 347.413 37.744V38C347.413 39.6213 347.786 40.816 348.533 41.584C349.301 42.352 350.431 42.736 351.925 42.736C352.437 42.736 353.023 42.672 353.685 42.544C354.346 42.416 354.965 42.2133 355.541 41.936C356.031 41.7013 356.469 41.6267 356.853 41.712C357.237 41.776 357.535 41.9467 357.749 42.224C357.962 42.5013 358.079 42.8213 358.101 43.184C358.143 43.5467 358.069 43.9093 357.877 44.272C357.685 44.6133 357.365 44.9013 356.917 45.136C356.191 45.5413 355.37 45.84 354.453 46.032C353.557 46.2453 352.682 46.352 351.829 46.352Z" fill="#0C3651"/>
<path d="M34.5 53.1875L25.875 48.875M25.875 48.875L8.625 57.5V20.125L25.875 11.5M25.875 48.875V11.5M25.875 11.5L43.125 20.125M43.125 20.125L60.375 11.5V33.0625M43.125 20.125V35.9375M54.625 51.75V51.7788M60.7229 57.8479C61.9294 56.6418 62.7511 55.1049 63.0841 53.4318C63.4171 51.7586 63.2464 50.0243 62.5937 48.4481C61.941 46.872 60.8355 45.5248 59.4171 44.5769C57.9986 43.6291 56.331 43.1232 54.625 43.1232C52.919 43.1232 51.2514 43.6291 49.8329 44.5769C48.4145 45.5248 47.309 46.872 46.6563 48.4481C46.0036 50.0243 45.8329 51.7586 46.1659 53.4318C46.4989 55.1049 47.3206 56.6418 48.5271 57.8479C49.7289 59.0515 51.7615 60.8523 54.625 63.25C57.6476 60.6913 59.6802 58.8905 60.7229 57.8479Z" stroke="#0C3651" stroke-width="2" stroke-linecap="round" stroke-linejoin="round"/>
</svg>
